<svg xmlns="http://www.w3.org/2000/svg" viewBox="0 0 64 64" style="enable-background:new 0 0 64 64" xml:space="preserve"><path d="M42.213 40.036H40.49c2.232-2.107 3.77-4.78 3.997-7.16h.797a2.754 2.754 0 0 0 2.749-2.752V27.71a2.085 2.085 0 0 0-2.002-2.08c.044-.188.072-.38.072-.581v-1.3c0-1.064-.649-1.979-1.572-2.37v-5.135c3.078-.364 5.512-2.115 6.616-4.813 1.174-2.87.598-6.2-1.433-8.287-1.336-1.373-4.435-3.354-10.172-1.186-4.858 1.836-9.99 1.835-14.847 0-5.738-2.169-8.835-.187-10.172 1.186-2.032 2.087-2.607 5.418-1.433 8.287 1.104 2.698 3.538 4.45 6.616 4.813v5.134a2.576 2.576 0 0 0-1.576 2.37v1.3c0 .201.028.395.072.583-1.11.046-2.001.957-2.001 2.08v2.412a2.755 2.755 0 0 0 2.752 2.752h.798c.227 2.38 1.764 5.053 3.996 7.16h-1.96c-6.33 0-11.48 5.15-11.48 11.48v9.166a2.315 2.315 0 0 0 2.314 2.313h38.756a2.318 2.318 0 0 0 2.317-2.313v-9.166c0-6.33-5.15-11.48-11.48-11.48zm-6.257 2.952v.975a3.775 3.775 0 0 1-3.77 3.77h-.376a3.773 3.773 0 0 1-3.767-3.77V42.89c2.552 1.085 5.34 1.127 7.913.098zM20.706 25.622a.583.583 0 0 1-.577-.573v-1.3c0-.31.264-.572.577-.572H43.53a.58.58 0 0 1 .572.573v1.3a.58.58 0 0 1-.572.572H20.705zm25.327 4.502a.76.76 0 0 1-.749.752h-.752v-3.254h1.415c.045 0 .086.043.086.09v2.412zM14.94 10.674c-.878-2.144-.47-4.609 1.014-6.134 1.719-1.766 4.573-2.019 8.033-.71 5.32 2.009 10.941 2.009 16.26 0 3.461-1.308 6.314-1.055 8.033.71 1.485 1.525 1.892 3.99 1.015 6.135-.921 2.251-3.03 3.577-5.787 3.638-.01 0-.019.006-.03.007-.009 0-.017-.005-.027-.004a5.904 5.904 0 0 1-2.747-.426 1 1 0 0 0-.762 1.85c.831.342 1.7.528 2.589.575v4.862H21.705v-4.862a7.853 7.853 0 0 0 2.588-.575 1 1 0 0 0-.761-1.85 5.898 5.898 0 0 1-2.748.426c-.01 0-.018.004-.028.004-.01 0-.019-.007-.03-.007-2.756-.06-4.865-1.387-5.786-3.638zm3.26 19.45V27.71c0-.046.043-.089.089-.089h1.416v3.254h-.753a.753.753 0 0 1-.752-.752zm3.505 2.153v-4.655H42.53v4.655c0 2.407-2.296 5.877-5.434 7.887-1.563.848-3.16 1.606-4.98 1.607-1.797.001-3.435-.737-4.97-1.601-3.143-2.01-5.442-5.484-5.442-7.893zm-9.398 28.405v-9.166c0-5.228 4.252-9.48 9.48-9.48h4.257v1.927a5.767 5.767 0 0 0 2.631 4.837l7.399 5.667v6.529H19.41v-2.733a1 1 0 0 0-2 0v2.733h-4.79a.318.318 0 0 1-.313-.314zm39.386 0a.32.32 0 0 1-.317.314h-4.785v-2.733a1 1 0 1 0-2 0v2.733h-6.518v-7.023a1 1 0 0 0-.391-.793l-4.6-3.523c2.757-.433 4.874-2.818 4.874-5.694v-1.927h4.257c5.228 0 9.48 4.253 9.48 9.48v9.166z"/><path d="M32.812 57.86a1 1 0 1 0 0-2h-.034a.985.985 0 0 0-.983 1c0 .551.465 1 1.017 1zM27.192 32.876a1 1 0 0 0 1-1v-.926a1 1 0 0 0-2 0v.926a1 1 0 0 0 1 1zM37.074 32.876a1 1 0 0 0 1-1v-.926a1 1 0 1 0-2 0v.926a1 1 0 0 0 1 1zM32.103 38.912c.617 0 1.238-.208 1.834-.623a1 1 0 0 0-1.144-1.64c-.497.345-.871.348-1.335.01a1 1 0 1 0-1.176 1.618c.582.423 1.2.635 1.821.635z"/></svg>